<svg xmlns="http://www.w3.org/2000/svg" xmlns:xlink="http://www.w3.org/1999/xlink" version="1.1" style="" xml:space="preserve" width="512" height="512"><rect id="backgroundrect" width="100%" height="100%" x="0" y="0" fill="none" stroke="none"/>

















<g class="currentLayer" style=""><title>Layer 1</title><g id="svg_1" class="" fill="#b6b6b6" fill-opacity="1">
	<g id="svg_2" fill="#b6b6b6" fill-opacity="1">
		<path d="M256,0C114.833,0,0,114.833,0,256s114.833,256,256,256s256-114.853,256-256S397.167,0,256,0z M256,472.341    c-119.275,0-216.341-97.046-216.341-216.341S136.725,39.659,256,39.659S472.341,136.705,472.341,256S375.295,472.341,256,472.341z    " id="svg_3" fill="#b6b6b6" fill-opacity="1"/>
	</g>
</g><g id="svg_4" class="selected" fill-opacity="1" fill="#f7315f">
	<g id="svg_5" fill="#f7315f">
		<path d="M355.148,233.61080618953704 H275.83 v-79.318 c0,-10.946 -8.864,-19.83 -19.83,-19.83 s-19.83,8.884 -19.83,19.83 v79.318 h-79.318 c-10.966,0 -19.83,8.884 -19.83,19.83 s8.864,19.83 19.83,19.83 h79.318 v79.318 c0,10.946 8.864,19.83 19.83,19.83 s19.83,-8.884 19.83,-19.83 v-79.318 h79.318 c10.966,0 19.83,-8.884 19.83,-19.83 S366.114,233.61080618953704 355.148,233.61080618953704 z" id="svg_6" fill="#f7315f"/>
	</g>
</g><g id="svg_7">
</g><g id="svg_8">
</g><g id="svg_9">
</g><g id="svg_10">
</g><g id="svg_11">
</g><g id="svg_12">
</g><g id="svg_13">
</g><g id="svg_14">
</g><g id="svg_15">
</g><g id="svg_16">
</g><g id="svg_17">
</g><g id="svg_18">
</g><g id="svg_19">
</g><g id="svg_20">
</g><g id="svg_21">
</g></g></svg>