<svg xmlns="http://www.w3.org/2000/svg" xmlns:xlink="http://www.w3.org/1999/xlink" version="1.1" width="588.52" height="588.52" style="enable-background:new 0 0 588.52 588.52;" xml:space="preserve"><rect id="backgroundrect" width="100%" height="100%" x="0" y="0" fill="none" stroke="none"/>
















<g class="currentLayer" style=""><title>Layer 1</title><g id="svg_1" class="" fill="#b6b6b6" fill-opacity="1">
	<g id="svg_2" fill="#b6b6b6" fill-opacity="1">
		<g id="svg_3" fill="#b6b6b6" fill-opacity="1">
			<path d="M20.493224758148195,407.0606123790741 c14.797,34.982 35.975,66.396 62.947,93.369 c26.971,26.971 58.385,48.148 93.368,62.945 c36.23,15.324 74.704,23.094 114.352,23.094 c39.648,0 78.121,-7.77 114.352,-23.094 c34.982,-14.797 66.396,-35.975 93.369,-62.945 c26.971,-26.973 48.148,-58.387 62.945,-93.369 c15.324,-36.23 23.094,-74.703 23.094,-114.352 c0,-39.647 -7.77,-78.121 -23.094,-114.352 c-14.797,-34.983 -35.975,-66.397 -62.945,-93.368 c-26.973,-26.972 -58.387,-48.15 -93.369,-62.947 C369.28022475814817,6.719612379074096 330.8072247581482,-1.0503876209259033 291.1592247581482,-1.0503876209259033 c-39.647,0 -78.121,7.77 -114.352,23.094 c-34.983,14.796 -66.396,35.975 -93.368,62.947 c-26.972,26.971 -48.15,58.385 -62.947,93.368 C5.169224758148193,214.5886123790741 -2.6007752418518066,253.0616123790741 -2.6007752418518066,292.7096123790741 C-2.6007752418518066,332.3576123790741 5.169224758148193,370.83061237907407 20.493224758148195,407.0606123790741 zM59.94822475814819,195.0466123790741 c12.637,-29.877 30.732,-56.714 53.783,-79.765 c23.051,-23.051 49.888,-41.146 79.765,-53.783 c30.92,-13.078 63.779,-19.709 97.663,-19.709 c33.883,0 66.742,6.631 97.664,19.71 c29.875,12.636 56.713,30.732 79.764,53.783 c23.051,23.051 41.146,49.888 53.783,79.765 c13.078,30.92 19.709,63.779 19.709,97.662 c0,33.883 -6.631,66.742 -19.709,97.664 c-12.637,29.875 -30.732,56.713 -53.783,79.764 s-49.889,41.146 -79.764,53.783 c-30.922,13.078 -63.781,19.709 -97.664,19.709 c-33.883,0 -66.742,-6.631 -97.663,-19.709 c-29.877,-12.637 -56.714,-30.732 -79.765,-53.783 s-41.146,-49.889 -53.783,-79.766 c-13.078,-30.92 -19.709,-63.779 -19.709,-97.662 C40.2392247581482,258.8256123790741 46.87022475814819,225.9676123790741 59.94822475814819,195.0466123790741 z" id="svg_4" fill="#b6b6b6" fill-opacity="1"/>
			<path d="M291.1592247581482,586.9696123790741 c-39.716,0 -78.255,-7.783 -114.546,-23.133 c-35.043,-14.822 -66.51,-36.036 -93.526,-63.053 c-27.017,-27.018 -48.231,-58.484 -63.054,-93.528 C4.682224758148194,370.9636123790741 -3.1007752418518066,332.4246123790741 -3.1007752418518066,292.7096123790741 s7.783,-78.253 23.133,-114.546 c14.822,-35.043 36.037,-66.51 63.054,-93.526 c27.017,-27.018 58.483,-48.232 93.526,-63.054 C212.9052247581482,6.232612379074097 251.44422475814818,-1.5503876209259033 291.1592247581482,-1.5503876209259033 s78.254,7.783 114.546,23.133 c35.043,14.822 66.511,36.037 93.528,63.054 c27.016,27.016 48.229,58.482 63.053,93.526 c15.35,36.292 23.133,74.831 23.133,114.546 s-7.783,78.255 -23.133,114.546 c-14.822,35.043 -36.036,66.511 -63.053,93.528 c-27.018,27.017 -58.485,48.23 -93.528,63.052 C369.4142247581482,579.1856123790741 330.8752247581482,586.9696123790741 291.1592247581482,586.9696123790741 zM291.1592247581482,-0.5503876209259031 c-39.58,0 -77.988,7.757 -114.157,23.054 c-34.924,14.771 -66.284,35.914 -93.209,62.84 c-26.925,26.925 -48.068,58.285 -62.84,93.209 C5.656224758148193,214.7216123790741 -2.1007752418518066,253.1296123790741 -2.1007752418518066,292.7096123790741 s7.757,77.988 23.054,114.157 c14.772,34.924 35.915,66.284 62.84,93.21 c26.925,26.925 58.285,48.066 93.209,62.838 c36.167,15.298 74.576,23.055 114.157,23.055 s77.989,-7.757 114.157,-23.055 c34.923,-14.771 66.283,-35.913 93.21,-62.838 c26.925,-26.927 48.066,-58.287 62.838,-93.21 c15.298,-36.168 23.055,-74.576 23.055,-114.157 s-7.757,-77.989 -23.055,-114.157 c-14.771,-34.925 -35.914,-66.285 -62.838,-93.209 c-26.927,-26.926 -58.287,-48.068 -93.21,-62.84 C369.1472247581482,7.206612379074096 330.7392247581482,-0.5503876209259031 291.1592247581482,-0.5503876209259031 zM291.1592247581482,544.129612379074 c-33.952,0 -66.875,-6.6450000000000005 -97.857,-19.748 c-29.936,-12.662 -56.826,-30.794 -79.923,-53.891 c-23.096,-23.096 -41.227,-49.986 -53.89,-79.925 C46.383224758148195,359.5846123790741 39.7392247581482,326.6606123790741 39.7392247581482,292.7096123790741 c0,-33.95 6.6450000000000005,-66.874 19.749,-97.857 c12.662,-29.936 30.793,-56.826 53.89,-79.923 c23.097,-23.097 49.987,-41.228 79.923,-53.89 c30.983,-13.104 63.907,-19.749 97.857,-19.749 c33.951,0 66.875,6.6450000000000005 97.858,19.75 c29.937,12.662 56.826,30.793 79.923,53.89 c23.098,23.098 41.229,49.988 53.891,79.923 c13.104,30.982 19.748,63.906 19.748,97.857 s-6.6450000000000005,66.875 -19.748,97.858 c-12.663,29.937 -30.794,56.827 -53.891,79.923 c-23.096,23.097 -49.986,41.228 -79.923,53.89 C358.0342247581482,537.4846123790741 325.1102247581482,544.129612379074 291.1592247581482,544.129612379074 zM291.1592247581482,42.2896123790741 c-33.816,0 -66.609,6.618 -97.468,19.67 c-29.817,12.612 -56.601,30.671 -79.606,53.676 c-23.005,23.005 -41.065,49.789 -53.676,79.606 c-13.052,30.859 -19.67,63.652 -19.67,97.468 c0,33.816 6.618,66.609 19.67,97.468 c12.613,29.818 30.672,56.603 53.676,79.606 c23.006,23.006 49.789,41.064 79.606,53.676 c30.858,13.052 63.651,19.67 97.468,19.67 c33.816,0 66.609,-6.618 97.47,-19.67 c29.816,-12.612 56.6,-30.671 79.604,-53.676 s41.063,-49.788 53.676,-79.604 c13.052,-30.86 19.67,-63.653 19.67,-97.47 c0,-33.817 -6.618,-66.609 -19.67,-97.467 c-12.611,-29.816 -30.67,-56.6 -53.676,-79.606 c-23.005,-23.005 -49.788,-41.064 -79.604,-53.676 C357.7682247581482,48.907612379074095 324.9752247581482,42.2896123790741 291.1592247581482,42.2896123790741 z" id="svg_5" fill="#b6b6b6" fill-opacity="1"/>
		</g>
		<g id="svg_6" fill="#b6b6b6" fill-opacity="1">
			<path d="M157.7692247581482,314.1296123790741 h265.556 c11.83,0 21.42,-9.59 21.42,-21.42 c0,-11.83 -9.59,-21.42 -21.42,-21.42 H157.7692247581482 c-11.83,0 -21.42,9.59 -21.42,21.42 C136.34922475814818,304.5396123790741 145.93922475814819,314.1296123790741 157.7692247581482,314.1296123790741 z" id="svg_7" fill="#b6b6b6" fill-opacity="1"/>
			<path d="M423.3252247581482,314.6296123790741 H157.7692247581482 c-12.087,0 -21.92,-9.833 -21.92,-21.92 s9.833,-21.92 21.92,-21.92 h265.556 c12.087,0 21.92,9.833 21.92,21.92 S435.41222475814817,314.6296123790741 423.3252247581482,314.6296123790741 zM157.7692247581482,271.7896123790741 c-11.535,0 -20.92,9.385 -20.92,20.92 s9.385,20.92 20.92,20.92 h265.556 c11.535,0 20.92,-9.385 20.92,-20.92 s-9.385,-20.92 -20.92,-20.92 H157.7692247581482 z" id="svg_8" fill="#b6b6b6" fill-opacity="1"/>
		</g>
	</g>
</g><g id="svg_9">
</g><g id="svg_10">
</g><g id="svg_11">
</g><g id="svg_12">
</g><g id="svg_13">
</g><g id="svg_14">
</g><g id="svg_15">
</g><g id="svg_16">
</g><g id="svg_17">
</g><g id="svg_18">
</g><g id="svg_19">
</g><g id="svg_20">
</g><g id="svg_21">
</g><g id="svg_22">
</g><g id="svg_23">
</g></g></svg>