<svg id="Icons" height="512" viewBox="0 0 74 74" width="512" xmlns="http://www.w3.org/2000/svg"><path d="m27.5 61.36h-2.94a1 1 0 0 1 0-2h2.94a1 1 0 0 1 0 2z"/><path d="m56.03 61.36h-11.59a1 1 0 0 1 0-2h11.3l8.223-5.26h-57.544l8.223 5.26h2.918a1 1 0 1 1 0 2h-3.21a1 1 0 0 1 -.539-.158l-11.35-7.26a1 1 0 0 1 .539-1.842h64.38a1 1 0 0 1 .539 1.842l-11.35 7.258a1 1 0 0 1 -.539.16z"/><path d="m37.44 61.36h-2.94a1 1 0 0 1 0-2h2.94a1 1 0 0 1 0 2z"/><path d="m51.805 54.1a1 1 0 0 1 -.933-1.361c5.153-13.341 6.7-22.722 6.2-38.1h-43.76c-.5 15.377 1.043 24.758 6.2 38.1a1 1 0 0 1 -1.865.721c-5.373-13.908-6.9-23.593-6.3-39.857a1 1 0 0 1 1-.963h45.688a1 1 0 0 1 1 .963c.606 16.264-.925 25.949-6.3 39.857a1 1 0 0 1 -.93.64z"/><path d="m43.5 21.905a1 1 0 0 1 -1-1v-7.269a1 1 0 1 1 2 0v7.269a1 1 0 0 1 -1 1z"/><path d="m46.82 30.212h-6.645a1 1 0 0 1 -1-1v-5.538a1 1 0 0 1 .359-.768l3.322-2.769a1 1 0 0 1 1.281 0l3.324 2.769a1 1 0 0 1 .359.768v5.538a1 1 0 0 1 -1 1zm-5.645-2h4.645v-4.07l-2.32-1.935-2.322 1.935z"/><path d="m55.911 42.308-.486-1.941c7.107-1.779 11.865-5.407 14.14-10.782a5.314 5.314 0 0 0 -.453-5.028 5.2 5.2 0 0 0 -4.408-2.37h-6.552v-2h6.548a7.3 7.3 0 0 1 6.7 10.179c-1.735 4.113-5.837 9.525-15.489 11.942z"/></svg>